# xmcd CD database file
#
# Track frame offsets:
#	150
#	19833
#	32842
#	53133
#	75537
#	101241
#	117408
#	138093
#	149883
#	159052
#	183431
#	202365
#	211417
#	236776
#	255500
#
# Disc length: 3918 seconds
#
# Revision: 0
# Processed by: cddbd v1.5.1PL2 Copyright (c) Steve Scherf et al.
# Submitted via: Feurio! 1.66 - http://www.feurio.com
#
DISCID=db0f4c0f
DTITLE=Various Artist - All about the boogaloo
DYEAR=1900
DGENRE=Blues
TTITLE0=Bonnie J. Gordon - late bloomer
TTITLE1=Whetstone - free man
TTITLE2=Big Minna and The Bullfrog Blues band - hey joe
TTITLE3=Crazy Catfish - little wing
TTITLE4=Paul Bowen and The Wild Spirits - on the waterfront
TTITLE5=Igor Flach - hashish habit
TTITLE6=Monkey Cab - rain
TTITLE7=Purple Tonic - sing me a song
TTITLE8=Don Promillo Blues Band - fresh from the wood
TTITLE9=Die Fuﬂg‰nger - fortunate song
TTITLE10=Kati  Zappek - somewheroe over the rainbow
TTITLE11=Tumba Ito - samba orbital
TTITLE12=Ulla Viol Grooveband - kyxj teil d
TTITLE13=Bradery Joyle - the orient club
TTITLE14=Bonnie J. Gordon - the freedom
EXTD=
EXTT0=
EXTT1=
EXTT2=
EXTT3=
EXTT4=
EXTT5=
EXTT6=
EXTT7=
EXTT8=
EXTT9=
EXTT10=
EXTT11=
EXTT12=
EXTT13=
EXTT14=
PLAYORDER=
